Coordinates
version=1
nRows=11
nColumns=42
inDegrees=yes

Units are S.I. units (second, meters, Newtons, ...)
If the header above contains a line with 'inDegrees', this indicates whether rotational values are in degrees (yes) or radians (no).

endheader
time	pelvis_tilt	pelvis_list	pelvis_rotation	pelvis_tx	pelvis_ty	pelvis_tz	hip_flexion_r	hip_adduction_r	hip_rotation_r	knee_angle_r	knee_adduction_r	knee_angle_r_beta	ankle_angle_r	subtalar_angle_r	mtp_angle_r	hip_flexion_l	hip_adduction_l	hip_rotation_l	knee_angle_l	knee_adduction_l	knee_angle_l_beta	ankle_angle_l	subtalar_angle_l	mtp_angle_l	lumbar_extension	lumbar_bending	lumbar_rotation	arm_flex_r	arm_add_r	arm_rot_r	elbow_flex_r	pro_sup_r	wrist_flex_r	wrist_dev_r	arm_flex_l	arm_add_l	arm_rot_l	elbow_flex_l	pro_sup_l	wrist_flex_l	wrist_dev_l
      1.75000000	     14.40561217	      4.91768217	      2.70497919	      0.21742289	      0.94215262	     -0.24079773	    -16.39789257	      4.21829602	    -17.02639421	      8.15946436	     -3.78874837	      0.14240952	     18.22513590	     12.34176435	     -7.53504160	      8.68695904	      4.33197200	     -9.16693412	     46.68237242	     -3.84184035	      0.81476110	     16.11592384	     -1.17327837	     -7.53504160	    -44.05096565	     -2.69518424	      1.28681637	      4.75414697	    -11.51221682	      4.40214450	     41.65657973	     90.00000001	      0.00000000	      0.00000000	     -2.99567077	    -10.51433900	     14.84817480	     47.37973620	     90.00000001	      0.00000000	      0.00000000
      1.76000000	     14.36444024	      4.92369890	      2.79639495	      0.22287885	      0.94194545	     -0.24076088	    -17.20128737	      4.29139140	    -17.22110702	      7.27350007	     -3.60609888	      0.12694652	     18.10719688	     12.92945803	     -7.53409042	      9.24436739	      4.64978285	     -9.23794610	     44.66534537	     -3.93029098	      0.77955734	     15.78005441	     -0.35033056	     -7.53409042	    -44.07933053	     -2.72348290	      1.29118845	      4.77984225	    -11.57117868	      4.49717331	     41.78902761	     90.00000001	      0.00000000	      0.00000000	     -3.05402604	    -10.43066424	     14.69332669	     47.37818323	     90.00000001	      0.00000000	      0.00000000
      1.77000000	     14.16939769	      4.85262664	      3.00786894	      0.22813611	      0.94132633	     -0.24091307	    -17.74982559	      4.54169189	    -17.44437961	      6.49093331	     -3.61121948	      0.11328816	     18.09355175	     13.35695559	     -7.53355151	     10.02205524	      4.92045026	     -9.20915564	     42.69695280	     -4.04685293	      0.74520241	     15.36842793	      0.27531939	     -7.53355151	    -43.95679153	     -2.62247710	      1.26696304	      4.81746932	    -11.62132113	      4.57338686	     41.88621012	     90.00000001	      0.00000000	      0.00000000	     -3.07610365	    -10.35672585	     14.60895746	     47.28644791	     90.00000001	      0.00000000	      0.00000000
      1.78000000	     13.79592733	      4.54490123	      3.10774488	      0.23332220	      0.94006730	     -0.24066518	    -17.87053673	      4.89080763	    -17.83520690	      6.16156793	     -3.43429740	      0.10753965	     18.12808176	     13.39702708	     -7.53319952	     11.15357693	      4.70523486	     -9.49016970	     41.11973211	     -3.95895362	      0.71767471	     15.13190803	      0.50015143	     -7.53319952	    -43.61659604	     -2.40938397	      1.48299440	      4.80910932	    -11.68854852	      4.60765582	     41.99412460	     90.00000001	      0.00000000	      0.00000000	     -3.20967611	    -10.26718040	     14.57067842	     47.36773884	     90.00000001	      0.00000000	      0.00000000
      1.79000000	     14.12236933	      4.87816697	      3.27800221	      0.23910018	      0.94066691	     -0.24129524	    -19.53105905	      4.67807169	    -17.66517542	      4.52382354	     -3.14164011	      0.07895562	     17.71953297	     14.61942226	     -7.53289296	     10.70368738	      5.68483375	     -9.54092409	     37.95531460	     -4.42477445	      0.66244521	     14.27135834	      1.90342046	     -7.53289296	    -44.07580812	     -2.62413261	      1.16171731	      4.87772861	    -11.71154755	      4.76703049	     42.06944020	     90.00000001	      0.00000000	      0.00000000	     -3.18138683	    -10.19261929	     14.40498443	     47.21614811	     90.00000001	      0.00000000	      0.00000000
      1.80000000	     14.19486774	      4.90094674	      3.31709837	      0.24479970	      0.94029325	     -0.24136921	    -20.43591866	      4.62713781	    -17.94272678	      3.81630165	     -2.77885981	      0.06660703	     17.60604864	     15.01249646	     -7.53173456	     10.81322021	      6.03280398	    -10.42610476	     35.36719100	     -4.91042254	      0.61727393	     13.92990396	      3.41775459	     -7.53173456	    -44.20167405	     -2.69044702	      1.16420546	      4.85004082	    -11.78056237	      4.95068002	     42.27698320	     90.00000001	      0.00000000	      0.00000000	     -3.32926599	    -10.20606315	     14.29817257	     47.42211386	     90.00000001	      0.00000000	      0.00000000
      1.81000000	     13.90415171	      4.68035143	      3.63802956	      0.24997570	      0.93904001	     -0.24189816	    -20.81316185	      5.06945287	    -18.14962921	      3.15989722	     -2.83052242	      0.05515061	     17.67882951	     15.34896544	     -7.53140816	     11.58643411	      6.16679459	    -10.71246051	     33.28966273	     -5.19786314	      0.58101422	     13.56408605	      4.04481852	     -7.53140816	    -43.97755346	     -2.38822490	      1.13606755	      4.88384699	    -11.86856268	      5.01055396	     42.30656962	     90.00000001	      0.00000000	      0.00000000	     -3.35583674	    -10.12160715	     14.30149686	     47.33776350	     90.00000001	      0.00000000	      0.00000000
      1.82000000	     14.06337721	      4.79416166	      3.67635548	      0.25583915	      0.93870892	     -0.24220424	    -21.85662412	      4.85675833	    -18.51180735	      2.45628768	     -2.33708172	      0.04287031	     17.62982709	     15.97567150	     -7.53059033	     11.36106892	      6.64646692	    -11.68034173	     30.38920560	     -5.63477458	      0.53039169	     13.14486682	      5.91735859	     -7.53059033	    -44.19815481	     -2.51530077	      1.05641576	      4.87719764	    -11.88896293	      5.17029770	     42.42870887	     90.00000001	      0.00000000	      0.00000000	     -3.48687757	    -10.11182802	     14.23861930	     47.42704004	     90.00000001	      0.00000000	      0.00000000
      1.83000000	     13.97246629	      4.70377343	      3.88561830	      0.26139519	      0.93764603	     -0.24269714	    -22.42559282	      4.99153918	    -18.99863822	      2.01055881	     -2.12349963	      0.03509087	     17.82499131	     16.61695152	     -7.52969099	     11.64913634	      6.88227458	    -12.66070100	     27.96298803	     -6.06321732	      0.48804621	     12.94145448	      7.73173152	     -7.52969099	    -44.15726859	     -2.39017959	      0.98407810	      4.88666526	    -11.92202050	      5.30038544	     42.49299975	     90.00000001	      0.00000000	      0.00000000	     -3.57523629	    -10.08592735	     14.24815832	     47.41927894	     90.00000001	      0.00000000	      0.00000000
      1.84000000	     13.81275730	      4.54687212	      4.15675525	      0.26686376	      0.93632591	     -0.24320860	    -22.86341301	      5.25685215	    -19.46399002	      1.62692330	     -2.00587540	      0.02839517	     18.10652074	     17.19251476	     -7.52913498	     12.03346381	      7.05746756	    -13.56727840	     25.67381416	     -6.44686733	      0.44809259	     12.76536971	      9.42213683	     -7.52913498	    -44.05148347	     -2.18888222	      0.92035188	      4.91221540	    -11.91717638	      5.41144696	     42.49866562	     90.00000001	      0.00000000	      0.00000000	     -3.61898927	    -10.07789673	     14.27808987	     47.36087588	     90.00000001	      0.00000000	      0.00000000
      1.85000000	     13.78265083	      4.43270081	      4.34937927	      0.27261415	      0.93508365	     -0.24385993	    -23.39243546	      5.30680325	    -20.25447105	      1.46590287	     -1.63956057	      0.02558483	     18.49511010	     18.02410303	     -7.52847465	     12.24252343	      7.16796634	    -15.24035237	     23.45690937	     -6.84986836	      0.40940030	     12.82725140	     12.21758567	     -7.52847465	    -44.05184238	     -2.03647861	      0.85622584	      4.91073370	    -11.99048936	      5.51052412	     42.54811244	     90.00000001	      0.00000000	      0.00000000	     -3.76085642	    -10.05601536	     14.33473497	     47.44826972	     90.00000001	      0.00000000	      0.00000000
